<svg xmlns="http://www.w3.org/2000/svg" viewBox="0 0 44.1 112.11"><defs><style>.cls-1,.cls-3{stroke:#000;stroke-miterlimit:10;}.cls-2{fill:#fff;}.cls-3{fill:none;stroke-width:3px;}</style></defs><g id="Layer_2" data-name="Layer 2"><g id="Layer_1-2" data-name="Layer 1"><rect class="cls-1" x="11.37" y="4.8" width="4.28" height="1.92" transform="translate(-0.76 9.21) rotate(-36.7)"/><rect class="cls-1" x="20.82" y="2.64" width="4.28" height="1.92" transform="translate(-0.17 1.32) rotate(-3.27)"/><rect class="cls-1" x="29.1" y="5.75" width="4.28" height="1.92" transform="translate(8.44 -15.68) rotate(32.36)"/><rect class="cls-1" x="35.36" y="12.74" width="4.28" height="1.92" transform="translate(32.63 -25.93) rotate(62.93)"/><path d="M17.84,5.36l-.85,0a6,6,0,0,0-1.07-.49l-.29-.08a.85.85,0,0,1-.32-.13.88.88,0,0,1-.25-.53.85.85,0,0,1,.19-.6c.05-.06.11-.08.34-.18l.22-.09c.34-.16.66-.32,1-.51l2.32-.11c.28.14.57.27.85.38l.29.1a.94.94,0,0,1,.28.11.87.87,0,0,1,.25.54.81.81,0,0,1-.2.53.41.41,0,0,1-.18.09,2.64,2.64,0,0,0-.6.31,1.64,1.64,0,0,0-.4.38.61.61,0,0,1-.15.13c-.1.07-.24.13-.84.16Z"/><path d="M19,3.11a5.41,5.41,0,0,0,.78.34l.31.11.12,0a.3.3,0,0,1,.05.15.78.78,0,0,1,0,.14h0a2.85,2.85,0,0,0-.71.37,2.49,2.49,0,0,0-.49.46l-.05,0a1.79,1.79,0,0,1-.59.07l-.55,0-.7,0a6.32,6.32,0,0,0-1.07-.47l-.3-.09-.14,0a.34.34,0,0,1-.07-.2.29.29,0,0,1,0-.16l.2-.09.22-.1a10,10,0,0,0,.93-.46L19,3.11m.22-1-2.59.13a9.76,9.76,0,0,1-1,.54,2,2,0,0,0-.72.4,1.24,1.24,0,0,0-.32.91v0A1.35,1.35,0,0,0,15,5a2.13,2.13,0,0,0,.78.32,5.72,5.72,0,0,1,1.08.49,9.27,9.27,0,0,0,1,.05l.61,0a2,2,0,0,0,1.09-.24c.26-.17.24-.29.56-.52s.59-.22.83-.44a1.28,1.28,0,0,0,.36-.89v0a1.35,1.35,0,0,0-.42-.87,2.15,2.15,0,0,0-.72-.31,7.27,7.27,0,0,1-.91-.42Z"/><circle class="cls-2" cx="15.66" cy="3.96" r="0.4"/><circle class="cls-2" cx="20.22" cy="3.7" r="0.4"/><line class="cls-3" x1="16.17" y1="1.84" x2="19.69" y2="1.63"/><line class="cls-3" x1="20.11" y1="1.91" x2="19.69" y2="1.63"/><line class="cls-3" x1="15.56" y1="2.15" x2="16.17" y2="1.84"/><line class="cls-3" x1="20.53" y1="1.89" x2="20.11" y2="1.91"/><line class="cls-3" x1="20.89" y1="1.43" x2="20.53" y2="1.89"/><line class="cls-3" x1="15.17" y1="2.19" x2="15.56" y2="2.15"/><line class="cls-3" x1="14.77" y1="1.92" x2="15.17" y2="2.19"/><path d="M7.7,10.83a.76.76,0,0,1-.5-.3A.78.78,0,0,1,7,9.93c0-.08,0-.14.18-.35l.13-.19c.2-.32.38-.63.55-1L9.77,7a6.64,6.64,0,0,0,.91-.15l.3-.07a.9.9,0,0,1,.26-.06.8.8,0,0,1,.53.31.81.81,0,0,1,.13.55.37.37,0,0,1-.1.18,2.2,2.2,0,0,0-.32.58,1.81,1.81,0,0,0-.13.54.65.65,0,0,1,0,.2c-.05.11-.13.24-.62.6a11.76,11.76,0,0,1-1.2.77,5.62,5.62,0,0,0-1.16.19,1.58,1.58,0,0,0-.28.08,1,1,0,0,1-.3.07Z"/><path d="M11.23,7.27a.24.24,0,0,1,.13.08.47.47,0,0,1,.05.14v0A2.75,2.75,0,0,0,11,8.2a2.55,2.55,0,0,0-.16.66v.07a2.37,2.37,0,0,1-.45.38A10.55,10.55,0,0,1,9.34,10a6.14,6.14,0,0,0-1.15.19l-.3.09-.15.05a.42.42,0,0,1-.17-.14.71.71,0,0,1-.06-.14,1.45,1.45,0,0,1,.12-.19l.13-.2c.18-.29.36-.59.52-.91L10,7.53c.28,0,.56-.09.83-.15l.32-.08.12,0m0-1a4,4,0,0,0-.67.14,6.81,6.81,0,0,1-1,.16L7.5,8.09c-.23.45-.43.79-.58,1a1.94,1.94,0,0,0-.39.73,1.29,1.29,0,0,0,.24.94l0,0a1.28,1.28,0,0,0,.83.49h.11a3.36,3.36,0,0,0,.71-.17A5.44,5.44,0,0,1,9.62,11,10.68,10.68,0,0,0,11,10.12c.54-.4.69-.59.78-.81s0-.37.18-.75.37-.5.45-.82a1.28,1.28,0,0,0-.19-.94l0,0a1.31,1.31,0,0,0-.83-.49Z"/><circle class="cls-2" cx="7.62" cy="10.08" r="0.4"/><circle class="cls-2" cx="11.29" cy="7.35" r="0.4"/><line class="cls-3" x1="6.87" y1="8.03" x2="9.7" y2="5.92"/><line class="cls-3" x1="10.21" y1="5.92" x2="9.7" y2="5.92"/><line class="cls-3" x1="6.54" y1="8.62" x2="6.87" y2="8.03"/><line class="cls-3" x1="10.54" y1="5.67" x2="10.21" y2="5.92"/><line class="cls-3" x1="10.59" y1="5.09" x2="10.54" y2="5.67"/><line class="cls-3" x1="6.23" y1="8.88" x2="6.54" y2="8.62"/><line class="cls-3" x1="5.75" y1="8.87" x2="6.23" y2="8.88"/><rect class="cls-1" x="4.72" y="11.41" width="4.28" height="1.92" transform="translate(-7.16 14.27) rotate(-68.71)"/><path d="M4.32,19.81a.69.69,0,0,1-.28,0,.79.79,0,0,1-.47-.42.93.93,0,0,1,0-.39v-.23a10.48,10.48,0,0,0,0-1.11l.86-2.16a6.78,6.78,0,0,0,.69-.62c.09-.08.16-.16.22-.22s.16-.17.22-.2a.72.72,0,0,1,.29-.06,1,1,0,0,1,.29.05.81.81,0,0,1,.41.41.38.38,0,0,1,0,.2,2.25,2.25,0,0,0,0,.66,2,2,0,0,0,.17.53.73.73,0,0,1,.07.19c0,.12,0,.27-.21.84A10.73,10.73,0,0,1,6,18.52a5.52,5.52,0,0,0-.88.77l-.2.23c-.14.16-.18.2-.25.23A.73.73,0,0,1,4.32,19.81Z"/><path d="M5.79,14.85h.09A.5.5,0,0,1,6,15v0a3,3,0,0,0,0,.8,2.38,2.38,0,0,0,.21.64l0,.07A2,2,0,0,1,6.1,17a9.81,9.81,0,0,1-.53,1.14A5.84,5.84,0,0,0,4.7,19l-.21.24-.1.11H4.32l-.15,0a.27.27,0,0,1-.12-.09h0a.8.8,0,0,1,0-.22v-.24c0-.34,0-.69,0-1l.31-.77.46-1.16a7,7,0,0,0,.64-.57L5.64,15l.09-.09h.06m0-1a1.3,1.3,0,0,0-.49.1c-.22.1-.31.25-.59.53a7.29,7.29,0,0,1-.75.65L3,17.54a11.22,11.22,0,0,1,0,1.18,1.94,1.94,0,0,0,.07.82,1.26,1.26,0,0,0,.69.67l0,0a1.34,1.34,0,0,0,.46.08,1.2,1.2,0,0,0,.5-.1c.25-.11.35-.29.61-.58a6.15,6.15,0,0,1,.9-.77A10.74,10.74,0,0,0,7,17.41a2,2,0,0,0,.23-1.1c0-.31-.16-.33-.24-.73s0-.62-.06-.93A1.26,1.26,0,0,0,6.3,14l0,0a1.41,1.41,0,0,0-.47-.08Z"/><circle class="cls-2" cx="4.16" cy="19.16" r="0.4"/><circle class="cls-2" cx="5.82" cy="14.9" r="0.4"/><line class="cls-3" x1="2.44" y1="17.81" x2="3.72" y2="14.53"/><line class="cls-3" x1="4.14" y1="14.26" x2="3.72" y2="14.53"/><line class="cls-3" x1="2.47" y1="18.49" x2="2.44" y2="17.81"/><line class="cls-3" x1="4.3" y1="13.87" x2="4.14" y2="14.26"/><line class="cls-3" x1="4.03" y1="13.35" x2="4.3" y2="13.87"/><line class="cls-3" x1="2.35" y1="18.88" x2="2.47" y2="18.49"/><line class="cls-3" x1="1.93" y1="19.12" x2="2.35" y2="18.88"/><line class="cls-3" x1="30.97" y1="3.18" x2="30.45" y2="3.44"/><path d="M27.84,5.89a2.33,2.33,0,0,1-.75-.23A10.71,10.71,0,0,1,25.82,5a5.62,5.62,0,0,0-.77-.9l-.21-.2c-.16-.15-.2-.19-.23-.26a.77.77,0,0,1,0-.58A.8.8,0,0,1,25,2.63a.44.44,0,0,1,.18,0H26l.8,0,2.14.9a8.32,8.32,0,0,0,.6.71l.23.22c.13.13.17.17.19.22a.84.84,0,0,1,0,.58.78.78,0,0,1-.41.4h-.21l-.28,0a2,2,0,0,0-.38,0,1.77,1.77,0,0,0-.53.16.51.51,0,0,1-.2.06Z"/><path d="M26.68,3.1l1.92.81a6.84,6.84,0,0,0,.55.64c.09.1.17.17.24.24l.09.08a.4.4,0,0,1,0,.16.65.65,0,0,1-.09.11h0l-.32,0a3.88,3.88,0,0,0-.48,0,3,3,0,0,0-.65.2l-.07,0a2.37,2.37,0,0,1-.56-.19,10.54,10.54,0,0,1-1.12-.55,5.86,5.86,0,0,0-.76-.88,2.28,2.28,0,0,0-.23-.22l-.11-.1a.3.3,0,0,1,0-.22.17.17,0,0,1,.12-.12H26l.71,0m.17-1c-.34,0-.64,0-.88,0h-.76a.9.9,0,0,0-.37.06,1.23,1.23,0,0,0-.68.68l0,0a1.32,1.32,0,0,0,0,1c.11.25.29.35.57.63a5.86,5.86,0,0,1,.76.91,10,10,0,0,0,1.43.72,2.47,2.47,0,0,0,.94.27H28c.31,0,.34-.16.74-.23l.31,0c.16,0,.27,0,.39,0a.66.66,0,0,0,.23,0,1.25,1.25,0,0,0,.71-.64l0,0a1.27,1.27,0,0,0,0-1c-.09-.22-.24-.31-.52-.6a8.31,8.31,0,0,1-.64-.77l-2.38-1Z"/><circle class="cls-2" cx="25.2" cy="3.22" r="0.4"/><circle class="cls-2" cx="29.43" cy="4.96" r="0.4"/><line class="cls-3" x1="26.58" y1="1.53" x2="29.85" y2="2.87"/><line class="cls-3" x1="30.1" y1="3.3" x2="29.85" y2="2.87"/><line class="cls-3" x1="25.9" y1="1.55" x2="26.58" y2="1.53"/><line class="cls-3" x1="30.49" y1="3.46" x2="30.1" y2="3.3"/><line class="cls-3" x1="25.52" y1="1.41" x2="25.9" y2="1.55"/><line class="cls-3" x1="25.29" y1="0.99" x2="25.52" y2="1.41"/><line class="cls-3" x1="38.51" y1="10.34" x2="37.93" y2="10.34"/><path d="M36.13,11.9a.51.51,0,0,1-.19-.09,2.36,2.36,0,0,0-.61-.28,2.09,2.09,0,0,0-.54-.09.42.42,0,0,1-.2,0c-.12,0-.25-.1-.65-.56a10.91,10.91,0,0,1-.87-1.13,5.37,5.37,0,0,0-.28-1.15c0-.1-.07-.19-.11-.28A.94.94,0,0,1,32.59,8a.83.83,0,0,1,.79-.74.9.9,0,0,1,.41.16l.2.11c.33.17.67.33,1,.47l1.53,1.76a8.89,8.89,0,0,0,.22.89c0,.12.08.22.11.3a.88.88,0,0,1,.07.29.79.79,0,0,1-.26.52,1,1,0,0,1-.48.18Z"/><path d="M33.38,7.72l.17.09.21.12a10.08,10.08,0,0,0,.94.44l.41.47,1,1.11a7.62,7.62,0,0,0,.22.82l.1.31a.61.61,0,0,1,0,.12.41.41,0,0,1-.08.13l-.13.07,0,0a2.75,2.75,0,0,0-.72-.33,2.6,2.6,0,0,0-.68-.11h-.06a2.22,2.22,0,0,1-.42-.42,10.88,10.88,0,0,1-.77-1,6,6,0,0,0-.29-1.13l-.11-.29L33.09,8a.39.39,0,0,1,.12-.18.22.22,0,0,1,.17-.07m0-1a1.26,1.26,0,0,0-.83.31l0,0a1.26,1.26,0,0,0-.43.86,2,2,0,0,0,.23.81A6,6,0,0,1,32.6,9.9a11.71,11.71,0,0,0,1,1.28,2,2,0,0,0,.87.71c.3.1.37,0,.76.12s.53.33.86.38h.14a1.39,1.39,0,0,0,.78-.28l0,0a1.29,1.29,0,0,0,.43-.86,2.34,2.34,0,0,0-.2-.77,7.42,7.42,0,0,1-.23-1L35.3,7.54a9.82,9.82,0,0,1-1.07-.49,1.86,1.86,0,0,0-.76-.33Z"/><circle class="cls-2" cx="33.32" cy="7.83" r="0.4"/><circle class="cls-2" cx="36.34" cy="11.26" r="0.4"/><line class="cls-3" x1="35.31" y1="6.92" x2="37.65" y2="9.56"/><line class="cls-3" x1="37.69" y1="10.06" x2="37.65" y2="9.56"/><line class="cls-3" x1="34.69" y1="6.63" x2="35.31" y2="6.92"/><line class="cls-3" x1="37.96" y1="10.38" x2="37.69" y2="10.06"/><line class="cls-3" x1="34.41" y1="6.35" x2="34.69" y2="6.63"/><line class="cls-3" x1="34.39" y1="5.86" x2="34.41" y2="6.35"/><rect class="cls-1" x="36.16" y="51.96" width="4.28" height="1.92" transform="matrix(0.36, 0.93, -0.93, 0.36, 73.84, -1.9)"/><rect class="cls-1" x="39.64" y="61.21" width="4.28" height="1.92" transform="translate(84.69 0.78) rotate(68.85)"/><path d="M33.65,41.37a.88.88,0,0,1-.31-.06.79.79,0,0,1-.4-.42.47.47,0,0,1,0-.21,2.45,2.45,0,0,0,0-.66,2.12,2.12,0,0,0-.16-.53.51.51,0,0,1-.06-.2,1.65,1.65,0,0,1,.23-.82,9.51,9.51,0,0,1,.65-1.27,5.64,5.64,0,0,0,.91-.76c.08-.07.14-.15.2-.21s.19-.2.26-.23a.79.79,0,0,1,.58,0,.79.79,0,0,1,.45.43,1,1,0,0,1,0,.4v.22a10.51,10.51,0,0,0,0,1.12l-.93,2.13a8.23,8.23,0,0,0-.71.59l-.23.22c-.13.14-.17.17-.22.19A.66.66,0,0,1,33.65,41.37Z"/><path d="M35.24,36.45a.42.42,0,0,1,.15,0,.48.48,0,0,1,.13.09h0c0,.07,0,.13,0,.22V37a9.19,9.19,0,0,0,0,1.05l-.42,1-.41.94c-.23.17-.44.36-.65.55l-.23.23a.76.76,0,0,0-.09.09h-.05l-.1,0a.5.5,0,0,1-.12-.09v0a3.18,3.18,0,0,0,0-.8,2.45,2.45,0,0,0-.19-.65l0-.07a1.82,1.82,0,0,1,.19-.56A10.49,10.49,0,0,1,34,37.55a6,6,0,0,0,.89-.75l.22-.23.1-.11h.07m0-1a1.22,1.22,0,0,0-.47.09c-.25.1-.35.28-.63.55a5.14,5.14,0,0,1-.92.75,11.76,11.76,0,0,0-.74,1.43,2,2,0,0,0-.27,1.09c0,.31.16.34.22.74s-.06.62,0,.93a1.29,1.29,0,0,0,.64.72l0,0a1.29,1.29,0,0,0,1,0c.21-.09.3-.24.6-.51a6.07,6.07,0,0,1,.77-.63c.35-.79.69-1.58,1-2.37a9.46,9.46,0,0,1,0-1.18,2.07,2.07,0,0,0,0-.83,1.24,1.24,0,0,0-.68-.69l0,0a1.43,1.43,0,0,0-.5-.1Z"/><circle class="cls-2" cx="38.9" cy="16.06" r="0.4"/><circle class="cls-2" cx="37.48" cy="50.51" r="0.4"/><line class="cls-3" x1="37.08" y1="38.01" x2="35.7" y2="41.25"/><path d="M40.73,60.17a.54.54,0,0,1-.27-.06c-.06,0-.08-.06-.15-.15a2.25,2.25,0,0,0-.47-.47,2.1,2.1,0,0,0-.49-.27.37.37,0,0,1-.17-.1c-.09-.07-.2-.18-.41-.75A10.22,10.22,0,0,1,38.35,57a6.76,6.76,0,0,0,.13-1.17c0-.11,0-.21,0-.3a.69.69,0,0,1,0-.34.78.78,0,0,1,.42-.41.81.81,0,0,1,.32-.06.77.77,0,0,1,.3.06c.08,0,.12.08.29.27l.15.18c.24.26.5.53.78.79l.83,2.17a5.75,5.75,0,0,0-.1.92c0,.13,0,.23,0,.31s0,.25,0,.3a.75.75,0,0,1-.43.4A.92.92,0,0,1,40.73,60.17Z"/><path d="M39.3,55.22a1.38,1.38,0,0,1,.15.17l.16.18a10.15,10.15,0,0,0,.73.74l.4,1.08.33.87a8,8,0,0,0-.08.84c0,.13,0,.24,0,.33v.13a.38.38,0,0,1-.12.1h-.14l0,0a2.85,2.85,0,0,0-.56-.56,2.66,2.66,0,0,0-.6-.33l-.06,0a2.24,2.24,0,0,1-.25-.54A11,11,0,0,1,38.86,57,7.74,7.74,0,0,0,39,55.84c0-.12,0-.22,0-.32a.75.75,0,0,1,0-.15.39.39,0,0,1,.17-.13h.16m-.06-1a1.24,1.24,0,0,0-.46.08l0,0A1.28,1.28,0,0,0,38,55a2,2,0,0,0-.06.84A5.61,5.61,0,0,1,37.83,57a11.25,11.25,0,0,0,.47,1.54,2,2,0,0,0,.57,1c.24.19.35.13.67.37s.39.49.67.65a1,1,0,0,0,.52.13,1.92,1.92,0,0,0,.44-.06h0a1.31,1.31,0,0,0,.7-.67,2.25,2.25,0,0,0,.08-.78,7.77,7.77,0,0,1,.11-1c-.3-.81-.61-1.62-.91-2.42a10.87,10.87,0,0,1-.84-.84c-.27-.31-.37-.46-.6-.57a1.29,1.29,0,0,0-.51-.1Z"/><circle class="cls-2" cx="39.23" cy="55.32" r="0.4"/><circle class="cls-2" cx="40.88" cy="59.58" r="0.4"/><line class="cls-3" x1="40.93" y1="54.68" x2="41.41" y2="55.15"/><line class="cls-3" x1="42.7" y1="59.32" x2="42.55" y2="58.93"/><line class="cls-3" x1="40.76" y1="54.31" x2="40.93" y2="54.68"/><line class="cls-3" x1="40.91" y1="53.84" x2="40.76" y2="54.31"/><circle class="cls-2" cx="31.57" cy="74.33" r="0.4"/><rect class="cls-1" x="1.71" y="20.85" width="4.28" height="1.92" transform="translate(25.92 20.06) rotate(95.49)"/><rect class="cls-1" x="12.29" y="108.34" width="4.28" height="1.92" transform="translate(120.68 79.87) rotate(82.04)"/><rect class="cls-1" x="8.78" y="99.14" width="4.28" height="1.92" transform="translate(-85.05 130.6) rotate(-101.4)"/><rect class="cls-1" x="2.7" y="30.53" width="4.28" height="1.92" transform="translate(34.86 20.83) rotate(79.21)"/><rect class="cls-1" x="4.65" y="40.22" width="4.28" height="1.92" transform="translate(45.97 26.8) rotate(79.21)"/><line class="cls-3" x1="2.21" y1="30.16" x2="2.57" y2="29.7"/><path d="M4.3,29.56a.81.81,0,0,1-.44-.12.85.85,0,0,1-.18-.24l-.17-.26a7.59,7.59,0,0,0-.57-.73l-.45-2.28c.1-.37.18-.73.24-1.09l0-.23c0-.24,0-.31.1-.37a.72.72,0,0,1,.49-.32.52.52,0,0,1,.18,0A.73.73,0,0,1,4,24c.07,0,.1.09.21.27s.09.16.15.26a5.67,5.67,0,0,0,.73.92,11.69,11.69,0,0,1,.36,1.38c.12.6.09.75,0,.86a.5.5,0,0,1-.1.17,2.26,2.26,0,0,0-.26.49A2.28,2.28,0,0,0,5,29a.43.43,0,0,1,0,.2.87.87,0,0,1-.5.33Z"/><path d="M3.54,24.4l.13,0,.07.13c0,.08.1.17.17.27a6.19,6.19,0,0,0,.71.93A10.22,10.22,0,0,1,4.93,27a1.75,1.75,0,0,1,.07.6l0,0a2.29,2.29,0,0,0-.33.6,2.73,2.73,0,0,0-.18.77v0a.54.54,0,0,1-.13.06h0l-.13,0-.07-.11a2.52,2.52,0,0,0-.18-.27A8,8,0,0,0,3.41,28l-.18-.86L3,26c.09-.34.17-.69.23-1l0-.24a.56.56,0,0,0,0-.17.29.29,0,0,1,.21-.12h0m0-1-.23,0H3.26a1.24,1.24,0,0,0-.8.52,1.93,1.93,0,0,0-.22.81A11.51,11.51,0,0,1,2,25.91l.51,2.53a7.91,7.91,0,0,1,.62.78c.23.34.29.5.48.63a1.24,1.24,0,0,0,.72.21.88.88,0,0,0,.22,0h.05a1.24,1.24,0,0,0,.78-.56c.15-.29,0-.45.22-.91s.27-.38.37-.67a2,2,0,0,0,0-1.12,11.12,11.12,0,0,0-.41-1.56,5.71,5.71,0,0,1-.75-.92c-.21-.33-.27-.52-.5-.68a1.31,1.31,0,0,0-.71-.21Z"/><circle class="cls-2" cx="3.41" cy="24.52" r="0.4"/><circle class="cls-2" cx="4.27" cy="29.01" r="0.4"/><line class="cls-3" x1="1.47" y1="25.53" x2="2.13" y2="29"/><line class="cls-3" x1="2.5" y1="29.34" x2="2.13" y2="29"/><line class="cls-3" x1="1.63" y1="24.87" x2="1.47" y2="25.53"/><line class="cls-3" x1="2.58" y1="29.75" x2="2.5" y2="29.34"/><line class="cls-3" x1="1.58" y1="24.47" x2="1.63" y2="24.87"/><line class="cls-3" x1="1.21" y1="24.15" x2="1.58" y2="24.47"/><line class="cls-3" x1="4.12" y1="39.66" x2="4.49" y2="39.2"/><path d="M6.21,39.06a.75.75,0,0,1-.44-.13s-.07-.07-.18-.23l-.17-.26a6.53,6.53,0,0,0-.57-.73L4.4,35.43c.1-.36.18-.73.25-1.09l0-.23a1,1,0,0,1,.1-.38.74.74,0,0,1,.49-.31.52.52,0,0,1,.18,0,.77.77,0,0,1,.43.12c.07,0,.1.1.21.28s.09.16.15.26A6.27,6.27,0,0,0,7,35a10,10,0,0,1,.36,1.38c.12.59.09.75,0,.86a.5.5,0,0,1-.1.17,2.26,2.26,0,0,0-.26.49,2.28,2.28,0,0,0-.16.65.43.43,0,0,1,0,.2.87.87,0,0,1-.5.33Z"/><path d="M5.45,33.9a.27.27,0,0,1,.13,0s0,.08.07.13.1.17.17.27a6.12,6.12,0,0,0,.71.92,9.09,9.09,0,0,1,.31,1.22,1.75,1.75,0,0,1,.07.6l0,0a2.29,2.29,0,0,0-.33.6,2.66,2.66,0,0,0-.18.77v0l-.14.07h0l-.13,0L6,38.43a2.52,2.52,0,0,0-.18-.27,8,8,0,0,0-.51-.68l-.2-1-.21-1.06c.09-.34.17-.68.23-1l0-.24a.56.56,0,0,0,0-.17.26.26,0,0,1,.21-.12h0m0-1-.23,0h0a1.29,1.29,0,0,0-.8.53,1.93,1.93,0,0,0-.22.8,11.58,11.58,0,0,1-.27,1.16l.51,2.53a7.91,7.91,0,0,1,.62.78,2.46,2.46,0,0,0,.48.63,1.32,1.32,0,0,0,.72.21.88.88,0,0,0,.22,0h.05A1.24,1.24,0,0,0,7.26,39c.15-.29,0-.45.22-.91s.27-.38.37-.68a1.94,1.94,0,0,0,0-1.11,10.78,10.78,0,0,0-.41-1.56,5.71,5.71,0,0,1-.75-.92c-.21-.33-.27-.53-.5-.68a1.23,1.23,0,0,0-.71-.21Z"/><circle class="cls-2" cx="5.32" cy="34.02" r="0.4"/><circle class="cls-2" cx="6.18" cy="38.51" r="0.4"/><line class="cls-3" x1="3.38" y1="35.03" x2="4.04" y2="38.5"/><line class="cls-3" x1="4.42" y1="38.84" x2="4.04" y2="38.5"/><line class="cls-3" x1="3.54" y1="34.37" x2="3.38" y2="35.03"/><line class="cls-3" x1="4.49" y1="39.25" x2="4.42" y2="38.84"/><line class="cls-3" x1="3.49" y1="33.97" x2="3.54" y2="34.37"/><line class="cls-3" x1="3.12" y1="33.65" x2="3.49" y2="33.97"/><rect class="cls-1" x="6.37" y="49.75" width="4.28" height="1.92" transform="translate(56.73 32.86) rotate(79.21)"/><rect class="cls-1" x="8.17" y="59.47" width="4.28" height="1.92" transform="translate(67.74 38.99) rotate(79.21)"/><rect class="cls-1" x="10.12" y="69.16" width="4.28" height="1.92" transform="translate(78.85 44.95) rotate(79.21)"/><path d="M8,48.59a.73.73,0,0,1-.43-.13s-.08-.07-.18-.23L7.19,48a8.36,8.36,0,0,0-.57-.73L6.16,45a10.52,10.52,0,0,0,.25-1.08l0-.23c0-.25,0-.31.1-.38A.73.73,0,0,1,7,42.94l.18,0a.74.74,0,0,1,.44.13c.06,0,.1.09.2.28s.09.16.16.25a5.33,5.33,0,0,0,.73.93,11.2,11.2,0,0,1,.36,1.38c.11.59.09.74.05.85a.64.64,0,0,1-.1.18,2,2,0,0,0-.27.49,2.52,2.52,0,0,0-.15.64.38.38,0,0,1-.05.2.8.8,0,0,1-.49.33Z"/><path d="M7.21,43.42a.25.25,0,0,1,.13,0l.08.13.16.27a6.93,6.93,0,0,0,.72.92A10.75,10.75,0,0,1,8.61,46a2.23,2.23,0,0,1,.07.6l0,.05a2.55,2.55,0,0,0-.32.59,2.9,2.9,0,0,0-.19.78v0L8,48.09H8a.21.21,0,0,1-.12,0L7.78,48l-.18-.28A8,8,0,0,0,7.08,47l-.17-.87L6.68,45c.09-.34.16-.68.22-1l0-.23a.82.82,0,0,0,0-.18.29.29,0,0,1,.21-.11h0m0-1-.22,0h0a1.27,1.27,0,0,0-.81.53,1.9,1.9,0,0,0-.21.8,11.51,11.51,0,0,1-.27,1.15c.17.85.34,1.69.5,2.54a6.93,6.93,0,0,1,.63.78c.22.33.28.49.48.62a1.25,1.25,0,0,0,.71.22l.23,0h.05A1.25,1.25,0,0,0,9,48.49c.16-.28.05-.45.23-.9s.27-.38.37-.68a2,2,0,0,0,0-1.12,10.94,10.94,0,0,0-.42-1.55,5.17,5.17,0,0,1-.74-.93c-.21-.33-.28-.52-.5-.67a1.26,1.26,0,0,0-.72-.22Z"/><circle class="cls-2" cx="7.09" cy="43.54" r="0.4"/><circle class="cls-2" cx="7.95" cy="48.04" r="0.4"/><line class="cls-3" x1="5.15" y1="44.56" x2="5.81" y2="48.02"/><line class="cls-3" x1="6.18" y1="48.36" x2="5.81" y2="48.02"/><line class="cls-3" x1="5.31" y1="43.89" x2="5.15" y2="44.56"/><line class="cls-3" x1="6.26" y1="48.78" x2="6.18" y2="48.36"/><line class="cls-3" x1="5.9" y1="49.23" x2="6.26" y2="48.78"/><line class="cls-3" x1="5.25" y1="43.5" x2="5.31" y2="43.89"/><line class="cls-3" x1="4.89" y1="43.18" x2="5.25" y2="43.5"/><line class="cls-3" x1="7.68" y1="59.11" x2="8.04" y2="58.65"/><path d="M9.76,58.51a.73.73,0,0,1-.43-.13c-.05,0-.08-.07-.18-.23L9,57.89a8,8,0,0,0-.57-.73L8,54.87a8.42,8.42,0,0,0,.25-1.08l0-.23c0-.25,0-.31.1-.38a.73.73,0,0,1,.48-.32l.18,0a.81.81,0,0,1,.44.13c.06,0,.1.1.2.28l.16.25a5.33,5.33,0,0,0,.73.93,11.69,11.69,0,0,1,.36,1.38c.11.59.09.74,0,.86a.75.75,0,0,1-.1.17,2,2,0,0,0-.27.49,2.48,2.48,0,0,0-.15.65.69.69,0,0,1,0,.2,1,1,0,0,1-.5.33Z"/><path d="M9,53.34a.32.32,0,0,1,.14,0l.07.13.16.27a6.93,6.93,0,0,0,.72.92,10.75,10.75,0,0,1,.31,1.21,2.23,2.23,0,0,1,.07.6l0,0a2.55,2.55,0,0,0-.32.59,2.9,2.9,0,0,0-.19.78v0L9.79,58h0l-.12,0-.07-.11-.18-.28a8,8,0,0,0-.52-.67l-.17-.87-.23-1.17a9.29,9.29,0,0,0,.22-1l0-.23a.82.82,0,0,0,0-.18A.29.29,0,0,1,9,53.35H9m0-1-.22,0h0a1.27,1.27,0,0,0-.81.53,1.94,1.94,0,0,0-.21.8,10.9,10.9,0,0,1-.27,1.15c.17.85.34,1.69.5,2.54a6.93,6.93,0,0,1,.63.78c.23.33.28.49.48.63a1.31,1.31,0,0,0,.71.21L10,59h0a1.28,1.28,0,0,0,.77-.56c.16-.29,0-.46.23-.91s.27-.38.37-.68a2,2,0,0,0,0-1.12A11.31,11.31,0,0,0,11,54.16a5.17,5.17,0,0,1-.74-.93c-.21-.32-.27-.52-.5-.67A1.26,1.26,0,0,0,9,52.34Z"/><circle class="cls-2" cx="8.88" cy="53.47" r="0.4"/><circle class="cls-2" cx="9.74" cy="57.96" r="0.4"/><line class="cls-3" x1="6.94" y1="54.48" x2="7.6" y2="57.95"/><line class="cls-3" x1="7.97" y1="58.28" x2="7.6" y2="57.95"/><line class="cls-3" x1="7.1" y1="53.82" x2="6.94" y2="54.48"/><line class="cls-3" x1="8.05" y1="58.7" x2="7.97" y2="58.28"/><line class="cls-3" x1="7.04" y1="53.42" x2="7.1" y2="53.82"/><line class="cls-3" x1="6.68" y1="53.1" x2="7.04" y2="53.42"/><line class="cls-3" x1="9.59" y1="68.6" x2="9.95" y2="68.15"/><path d="M11.67,68a.73.73,0,0,1-.43-.13c-.05,0-.08-.07-.18-.23l-.17-.26a6.8,6.8,0,0,0-.57-.73l-.45-2.29a10.46,10.46,0,0,0,.24-1.08l0-.23c0-.25,0-.31.1-.38a.73.73,0,0,1,.48-.32l.18,0a.75.75,0,0,1,.44.13c.06,0,.1.09.2.28l.16.25a5.73,5.73,0,0,0,.73.93,11.2,11.2,0,0,1,.36,1.38c.12.59.09.74,0,.85a.64.64,0,0,1-.1.18,1.79,1.79,0,0,0-.26.48,2.36,2.36,0,0,0-.16.65.56.56,0,0,1,0,.2.92.92,0,0,1-.5.34S11.73,68,11.67,68Z"/><path d="M10.91,62.84a.29.29,0,0,1,.14,0l.07.13.16.27a6.93,6.93,0,0,0,.72.92,10.75,10.75,0,0,1,.31,1.21,2.23,2.23,0,0,1,.07.6l0,0a2.2,2.2,0,0,0-.33.59,2.9,2.9,0,0,0-.19.78v0l-.13.07h0a.24.24,0,0,1-.12,0l-.07-.1-.18-.28a8,8,0,0,0-.52-.67l-.4-2c.09-.34.17-.68.23-1l0-.23a.82.82,0,0,0,0-.18.29.29,0,0,1,.21-.11h0m0-1-.22,0h0a1.3,1.3,0,0,0-.81.53,1.94,1.94,0,0,0-.21.8,11.51,11.51,0,0,1-.27,1.15l.51,2.54a7.91,7.91,0,0,1,.62.78c.23.33.28.49.48.62a1.25,1.25,0,0,0,.71.22.92.92,0,0,0,.23,0h0a1.25,1.25,0,0,0,.77-.57c.16-.28,0-.45.23-.9s.27-.38.37-.68a2,2,0,0,0,0-1.12,9.73,9.73,0,0,0-.42-1.55,5.17,5.17,0,0,1-.74-.93c-.21-.33-.27-.52-.5-.67a1.26,1.26,0,0,0-.72-.22Z"/><circle class="cls-2" cx="10.79" cy="62.96" r="0.4"/><circle class="cls-2" cx="11.65" cy="67.46" r="0.4"/><line class="cls-3" x1="8.85" y1="63.98" x2="9.51" y2="67.44"/><line class="cls-3" x1="9.88" y1="67.78" x2="9.51" y2="67.44"/><line class="cls-3" x1="9.01" y1="63.31" x2="8.85" y2="63.98"/><line class="cls-3" x1="9.96" y1="68.2" x2="9.88" y2="67.78"/><line class="cls-3" x1="8.96" y1="62.92" x2="9.01" y2="63.31"/><line class="cls-3" x1="8.59" y1="62.6" x2="8.96" y2="62.92"/><rect class="cls-1" x="9.72" y="79.37" width="4.28" height="1.92" transform="translate(92.91 75.34) rotate(94.88)"/><rect class="cls-1" x="8.83" y="89.22" width="4.28" height="1.92" transform="translate(101.76 86.91) rotate(94.88)"/><path d="M12.05,78.17a.8.8,0,0,1-.51-.27s-.06-.09-.11-.27l-.1-.3a6.45,6.45,0,0,0-.35-.86l.18-2.32a8.5,8.5,0,0,0,.53-1l.1-.21c.1-.22.13-.28.2-.33a.72.72,0,0,1,.48-.18h.12a.8.8,0,0,1,.51.27.85.85,0,0,1,.13.32c0,.09,0,.18.07.29a6.84,6.84,0,0,0,.46,1.09,13.61,13.61,0,0,1,0,1.43c-.06.6-.12.74-.19.83a.66.66,0,0,1-.14.15,1.74,1.74,0,0,0-.39.39,2,2,0,0,0-.32.58.78.78,0,0,1-.1.19.86.86,0,0,1-.54.18Z"/><path d="M12.47,73h.07a.3.3,0,0,1,.16.07.83.83,0,0,1,0,.15,2.43,2.43,0,0,0,.09.3,6.23,6.23,0,0,0,.43,1.08,10.4,10.4,0,0,1,0,1.25,1.84,1.84,0,0,1-.1.6l0,0a2.37,2.37,0,0,0-.48.48,2.9,2.9,0,0,0-.39.7v0l-.15,0a.45.45,0,0,1-.14-.07,1,1,0,0,1,0-.12l-.1-.31a7.68,7.68,0,0,0-.32-.79l.08-1.07.08-1a9.06,9.06,0,0,0,.49-.92l.1-.22a.73.73,0,0,0,.07-.16.24.24,0,0,1,.16-.06m0-1a1.29,1.29,0,0,0-.81.29,2.09,2.09,0,0,0-.42.72,9.26,9.26,0,0,1-.57,1c-.06.86-.13,1.72-.2,2.58a7,7,0,0,1,.39.92,2.18,2.18,0,0,0,.29.73,1.35,1.35,0,0,0,.86.45h.05a1.23,1.23,0,0,0,.9-.34c.22-.23.17-.42.46-.81s.36-.29.54-.55a1.92,1.92,0,0,0,.27-1.08,10.28,10.28,0,0,0,0-1.61,5.69,5.69,0,0,1-.47-1.09,2,2,0,0,0-.29-.79,1.34,1.34,0,0,0-.86-.44h-.16Z"/><circle class="cls-2" cx="12.43" cy="73.05" r="0.4"/><circle class="cls-2" cx="12.04" cy="77.6" r="0.4"/><line class="cls-3" x1="10.29" y1="73.5" x2="9.99" y2="77.01"/><line class="cls-3" x1="10.26" y1="77.44" x2="9.99" y2="77.01"/><line class="cls-3" x1="10.62" y1="72.9" x2="10.29" y2="73.5"/><line class="cls-3" x1="10.22" y1="77.86" x2="10.26" y2="77.44"/><line class="cls-3" x1="9.75" y1="78.2" x2="10.22" y2="77.86"/><line class="cls-3" x1="11.04" y1="72.78" x2="11.09" y2="73.18"/><line class="cls-3" x1="10.67" y1="72.47" x2="11.04" y2="72.78"/><line class="cls-3" x1="8.8" y1="88.19" x2="9.27" y2="87.85"/><path d="M11.09,88.2a.76.76,0,0,1-.51-.26.82.82,0,0,1-.11-.28,3,3,0,0,0-.09-.29,9.11,9.11,0,0,0-.35-.86l.18-2.32c.19-.32.37-.65.53-1l.1-.21a1,1,0,0,1,.19-.34.79.79,0,0,1,.49-.17h.12a.82.82,0,0,1,.51.27.74.74,0,0,1,.12.32c0,.09.05.18.08.29a6,6,0,0,0,.45,1.09,9.58,9.58,0,0,1,0,1.42,1.74,1.74,0,0,1-.18.84.5.5,0,0,1-.15.14,2.47,2.47,0,0,0-.39.4,2.74,2.74,0,0,0-.32.58c0,.11-.05.14-.1.18a.79.79,0,0,1-.53.19Z"/><path d="M11.52,83h.06a.35.35,0,0,1,.17.07s0,.09,0,.15.05.19.08.3a6.28,6.28,0,0,0,.44,1.08,10.38,10.38,0,0,1,0,1.25,1.68,1.68,0,0,1-.1.6l0,0a2.23,2.23,0,0,0-.47.49,2.72,2.72,0,0,0-.39.69v0a.38.38,0,0,1-.15,0,.22.22,0,0,1-.13-.06.56.56,0,0,1,0-.12l-.1-.31a7.68,7.68,0,0,0-.32-.79l.08-1,.08-1.1c.18-.31.35-.62.5-.92l.1-.22a.67.67,0,0,0,.06-.16.27.27,0,0,1,.17-.07m0-1a1.28,1.28,0,0,0-.81.3,1.79,1.79,0,0,0-.42.72,11.29,11.29,0,0,1-.57,1c-.07.86-.14,1.72-.2,2.58a6.74,6.74,0,0,1,.38.92,2.15,2.15,0,0,0,.3.73,1.3,1.3,0,0,0,.85.44h0a1.27,1.27,0,0,0,.9-.34c.23-.23.17-.42.46-.81s.36-.29.54-.55a2,2,0,0,0,.28-1.09,11.78,11.78,0,0,0,0-1.6,6,6,0,0,1-.46-1.1c-.12-.37-.12-.57-.3-.78a1.28,1.28,0,0,0-.85-.45h-.16Z"/><circle class="cls-2" cx="11.48" cy="83.08" r="0.4"/><circle class="cls-2" cx="11.09" cy="87.64" r="0.4"/><line class="cls-3" x1="9.34" y1="83.53" x2="9.04" y2="87.05"/><line class="cls-3" x1="9.3" y1="87.48" x2="9.04" y2="87.05"/><line class="cls-3" x1="9.67" y1="82.94" x2="9.34" y2="83.53"/><line class="cls-3" x1="9.27" y1="87.9" x2="9.3" y2="87.48"/><line class="cls-3" x1="9.72" y1="82.54" x2="9.67" y2="82.94"/><line class="cls-3" x1="9.46" y1="82.14" x2="9.72" y2="82.54"/><line class="cls-3" x1="8.07" y1="97.85" x2="8.54" y2="97.51"/><path d="M10.38,97.87a.8.8,0,0,1-.52-.27s-.06-.09-.11-.27l-.1-.3a7,7,0,0,0-.35-.86l.18-2.32c.19-.32.37-.65.53-1l.1-.21c.1-.22.13-.28.19-.33a.74.74,0,0,1,.49-.18h.12a.8.8,0,0,1,.51.27.74.74,0,0,1,.12.32c0,.09.05.18.08.29a6.34,6.34,0,0,0,.46,1.09,11.14,11.14,0,0,1,0,1.42c-.05.61-.11.74-.18.84a.47.47,0,0,1-.14.14,1.84,1.84,0,0,0-.39.4,2,2,0,0,0-.32.58.53.53,0,0,1-.1.18.84.84,0,0,1-.53.19Z"/><path d="M10.79,92.65h.07a.33.33,0,0,1,.16.07.66.66,0,0,1,0,.15c0,.09,0,.19.08.3a6.28,6.28,0,0,0,.44,1.08,10.4,10.4,0,0,1,0,1.25,1.94,1.94,0,0,1-.1.6l0,0a2.48,2.48,0,0,0-.48.49,2.9,2.9,0,0,0-.39.7v0a.37.37,0,0,1-.14,0,.24.24,0,0,1-.14-.06s0-.07,0-.12a1.82,1.82,0,0,0-.1-.31,7.61,7.61,0,0,0-.31-.79L10,94c.18-.31.34-.61.49-.92l.1-.22a1,1,0,0,0,.07-.16.24.24,0,0,1,.16-.06m0-1a1.29,1.29,0,0,0-.81.29c-.19.16-.24.35-.42.72a9.26,9.26,0,0,1-.57,1c-.07.86-.13,1.72-.2,2.58a7,7,0,0,1,.39.92,2.18,2.18,0,0,0,.29.73,1.25,1.25,0,0,0,.86.44h.05a1.29,1.29,0,0,0,.9-.34c.22-.23.16-.42.46-.81s.36-.29.54-.55a2,2,0,0,0,.27-1.08,10.3,10.3,0,0,0,0-1.61,5.47,5.47,0,0,1-.47-1.1,2.05,2.05,0,0,0-.29-.78,1.24,1.24,0,0,0-.86-.44h-.16Z"/><circle class="cls-2" cx="10.75" cy="92.75" r="0.4"/><circle class="cls-2" cx="10.36" cy="97.3" r="0.4"/><line class="cls-3" x1="8.61" y1="93.2" x2="8.31" y2="96.71"/><line class="cls-3" x1="8.58" y1="97.14" x2="8.31" y2="96.71"/><line class="cls-3" x1="8.94" y1="92.6" x2="8.61" y2="93.2"/><line class="cls-3" x1="8.54" y1="97.56" x2="8.58" y2="97.14"/><line class="cls-3" x1="9" y1="92.2" x2="8.94" y2="92.6"/><line class="cls-3" x1="8.73" y1="91.8" x2="9" y2="92.2"/><line class="cls-3" x1="12.14" y1="108.36" x2="12.38" y2="107.82"/><path d="M13.8,107.28a.64.64,0,0,1-.24,0c-.06,0-.1,0-.24-.18l-.23-.21a7.85,7.85,0,0,0-.73-.56l-1-2.1a10.2,10.2,0,0,0,0-1.11l0-.23c0-.25,0-.32,0-.39a.75.75,0,0,1,.39-.43.83.83,0,0,1,.38-.1.64.64,0,0,1,.24,0c.08,0,.12.06.27.21l.21.21a6.1,6.1,0,0,0,.94.71,11,11,0,0,1,.71,1.24c.26.55.27.7.26.82a.67.67,0,0,1,0,.19,2.12,2.12,0,0,0-.14.54,2.66,2.66,0,0,0,0,.67.48.48,0,0,1,0,.2.86.86,0,0,1-.4.45,1,1,0,0,1-.32.06Z"/><path d="M12.05,102.43h0a1.14,1.14,0,0,1,.11.11l.22.22a7.58,7.58,0,0,0,.93.71,9.66,9.66,0,0,1,.6,1.09,1.8,1.8,0,0,1,.22.56l0,.06a2.35,2.35,0,0,0-.16.65,2.84,2.84,0,0,0,0,.8v0a.58.58,0,0,1-.11.1l-.11,0h-.05a.38.38,0,0,0-.09-.09c-.07-.06-.14-.14-.24-.22s-.44-.36-.67-.52l-.22-.44-.69-1.43c0-.35,0-.7,0-1l0-.24a.63.63,0,0,0,0-.17.3.3,0,0,1,.17-.17.31.31,0,0,1,.13,0m0-1a1.48,1.48,0,0,0-.55.12l0,0a1.22,1.22,0,0,0-.65.71,1.89,1.89,0,0,0,0,.83c0,.28,0,.68,0,1.18.37.78.75,1.55,1.13,2.33a5.87,5.87,0,0,1,.79.6c.31.26.41.4.63.48a1.22,1.22,0,0,0,.41.07,1.3,1.3,0,0,0,.55-.12l0,0a1.27,1.27,0,0,0,.61-.75c.08-.31-.07-.44,0-.93s.16-.43.19-.75a2.06,2.06,0,0,0-.31-1.07,11.31,11.31,0,0,0-.8-1.4,5.8,5.8,0,0,1-1-.71c-.28-.26-.39-.43-.65-.53a1.22,1.22,0,0,0-.41-.07Z"/><circle class="cls-2" cx="11.88" cy="102.6" r="0.4"/><circle class="cls-2" cx="13.84" cy="106.72" r="0.4"/><line class="cls-3" x1="10.26" y1="104.07" x2="11.77" y2="107.25"/><line class="cls-3" x1="12.22" y1="107.49" x2="11.77" y2="107.25"/><line class="cls-3" x1="10.24" y1="103.38" x2="10.26" y2="104.07"/><line class="cls-3" x1="12.4" y1="107.87" x2="12.22" y2="107.49"/><line class="cls-3" x1="10.09" y1="103.01" x2="10.24" y2="103.38"/><line class="cls-3" x1="9.65" y1="102.8" x2="10.09" y2="103.01"/></g></g></svg>